<svg width="200" height="200" viewBox="0 0 200 200" fill="none" xmlns="http://www.w3.org/2000/svg">
<g clip-path="url(#clip0_9_6)">
<rect x="65.75" y="22" width="68.25" height="148.25" fill="white"/>
<path d="M100 0C44.775 0 0 44.775 0 100C0 155.225 44.775 200 100 200C155.225 200 200 155.225 200 100C200 44.775 155.225 0 100 0ZM100 163.833C92.1833 163.833 86.8333 157.808 86.8333 150C86.8333 141.967 92.4083 136.167 100 136.167C108.025 136.167 113.167 141.967 113.167 150C113.167 157.817 108.025 163.833 100 163.833ZM105.183 111.008C103.192 117.8 96.9167 117.917 94.825 111.008C92.4167 103.042 83.8583 72.8 83.8583 53.1583C83.8583 27.2417 116.283 27.1167 116.283 53.1583C116.275 72.9167 107.258 103.942 105.183 111.008Z" fill="#E17900"/>
</g>
<defs>
<clipPath id="clip0_9_6">
<rect width="200" height="200" fill="white"/>
</clipPath>
</defs>
</svg>
