<svg width="1710" height="2593" viewBox="0 0 1710 2593" fill="none" xmlns="http://www.w3.org/2000/svg">
<rect width="1710" height="2593" fill="white"/>
<path fill-rule="evenodd" clip-rule="evenodd" d="M956 17H750V516.5H547V565.75L783.5 565V765.5H921V797H658.5V615H547V565.75V516.5V416.5H444.5V1115H658.5V835.5H887V865.5H783.5V1313.5H919V1362.5H783.5V1563H658.5V1338.5H123.5V1520H3.5V1655H123.5V1837.5H658.5V1613H783.5V2060H881.5V2097H918.5V2141H820.5V2239H658.5V1939.5H446V2389H615.5V2385V2349.5H683.5V2538H820.5V2438H919V2589H1222.5V2438L1320.5 2438.5V2538H1457V2348.5H1528V2388H1695.5V1940H1482V2238.5H1317.5V2140.5H1220.5V2096H1258V2060H1358V1613H1491V1852H1707V1352.5H1538V1301.5H1651V1168H1491V1561.5H1358V1363.5H1222V1312.5H1358V865.5H1258V834.5H1491V1115.5H1695.5V616H1593H1491V797H1222V765.5H1358V565H1593V616H1695.5V416.5H1593V513.5H1391V17H1187V513.5H1122V432H1020V513.5H956V17ZM1020 565.75H956L956.5 991.5H1184.5V565L1122 565.75V591H1020V565.75ZM956 2239V1613H1019.5V1637.5H1119.5V1613H1185.5V2239H956ZM1184.5 1036.5H956.5L955 1563H1020.5V1478H1121V1563H1185.5L1184.5 1036.5Z" fill="#EDEDED"/>
<path d="M1695.5 616V416.5H1593V513.5H1391V17H1187V513.5H1122V432H1020V513.5H956V17H750V516.5H547M1695.5 616H1593M1695.5 616H1491M1695.5 616V1115.5H1491V834.5H1258V865.5H1358V1312.5H1222V1363.5H1358V1561.5H1491V1168H1651V1301.5H1538V1352.5H1707V1852H1491V1613H1358V2060H1258V2096H1220.5V2140.5H1317.5V2238.5H1482V1940H1695.5V2388H1528V2348.5H1457V2538H1320.5V2438.5L1222.5 2438V2589H919V2438H820.5V2538H683.5V2349.5H615.5V2385V2389H446V1939.5H658.5V2239H820.5V2141H918.5V2097H881.5V2060H783.5V1613H658.5V1837.5H123.5V1655H3.5V1520H123.5V1338.5H658.5V1563H783.5V1362.5H919V1313.5H783.5V865.5H887V835.5H658.5V1115H444.5V416.5H547V516.5M1593 616V565H1358V765.5H1222V797H1491V616M1593 616H1491M547 516.5V565.75M547 565.75V615H658.5V797H921V765.5H783.5V565L547 565.75ZM956 565.75H1020V591H1122V565.75L1184.5 565V991.5H956.5L956 565.75ZM956 1613V2239H1185.5V1613H1119.5V1637.5H1019.5V1613H956ZM956.5 1036.5H1184.5L1185.5 1563H1121V1478H1020.5V1563H955L956.5 1036.5Z" stroke="black"/>
<rect width="206" height="7" transform="translate(1189 13)" fill="#646464"/>
<rect width="206" height="7" transform="translate(747 13)" fill="#646464"/>
<rect width="162" height="7" transform="translate(754 213)" fill="#646464"/>
<rect width="163" height="6" transform="translate(1225 113)" fill="#646464"/>
<rect width="163" height="6" transform="translate(1225 213)" fill="#646464"/>
<rect width="72" height="6" transform="translate(1316 363)" fill="#646464"/>
<rect width="72" height="6" transform="translate(1225 363)" fill="#646464"/>
<rect width="72" height="6" transform="translate(1316 513)" fill="#646464"/>
<rect width="72" height="6" transform="translate(1225 513)" fill="#646464"/>
<rect width="162" height="7" transform="translate(754 363)" fill="#646464"/>
<rect width="372" height="7" transform="translate(551 561)" fill="#646464"/>
<rect width="102" height="5" transform="translate(449 413)" fill="#646464"/>
<rect width="94" height="7" transform="matrix(0 -1 1 0 544 512)" fill="#646464"/>
<rect width="102" height="5" transform="matrix(-1 0 0 1 1693 413)" fill="#646464"/>
<rect width="94" height="7" transform="matrix(0 -1 -1 0 1598 512)" fill="#646464"/>
<rect width="203" height="7" transform="translate(544 512)" fill="#646464"/>
<rect width="136" height="7" transform="translate(780 762)" fill="#646464"/>
<rect width="131" height="7" transform="matrix(0 -1 1 0 916 731)" fill="#646464"/>
<rect width="44" height="7" transform="matrix(0 -1 1 0 916 793)" fill="#646464"/>
<rect width="13" height="7" transform="matrix(0 -1 1 0 916 581)" fill="#646464"/>
<rect width="194" height="7" transform="matrix(0 -1 1 0 780 762)" fill="#646464"/>
<rect width="214" height="7" transform="translate(449 612)" fill="#646464"/>
<rect width="211" height="7" transform="matrix(0 -1 1 0 611 830)" fill="#646464"/>
<rect width="181" height="7" transform="matrix(0 -1 1 0 656 800)" fill="#646464"/>
<rect width="281" height="7" transform="matrix(0 -1 1 0 656 1111)" fill="#646464"/>
<rect width="269" height="7" transform="matrix(0 -1 1 0 611 1118)" fill="#646464"/>
<rect width="214" height="7" transform="translate(449 612)" fill="#646464"/>
<rect width="260" height="7" transform="translate(663 793)" fill="#646464"/>
<rect width="136" height="7" transform="matrix(-1 0 0 1 1362 762)" fill="#646464"/>
<rect width="131" height="7" transform="matrix(0 -1 -1 0 1226 731)" fill="#646464"/>
<rect width="44" height="7" transform="matrix(0 -1 -1 0 1226 793)" fill="#646464"/>
<rect width="13" height="7" transform="matrix(0 -1 -1 0 1226 581)" fill="#646464"/>
<rect width="194" height="7" transform="matrix(0 -1 -1 0 1362 762)" fill="#646464"/>
<rect width="269" height="7" transform="matrix(-1 0 0 1 1488 793)" fill="#646464"/>
<rect width="233" height="7" transform="matrix(-1 0 0 1 1488 830)" fill="#646464"/>
<rect width="227" height="7" transform="translate(663 830)" fill="#646464"/>
<rect width="129" height="7" transform="translate(787 861)" fill="#646464"/>
<rect width="129" height="7" transform="translate(787 1011)" fill="#646464"/>
<rect width="129" height="7" transform="translate(787 1160)" fill="#646464"/>
<rect width="129" height="7" transform="translate(787 1309)" fill="#646464"/>
<rect width="24" height="7" transform="translate(899 830)" fill="#646464"/>
<rect width="24" height="6" transform="matrix(0 -1 1 0 884 861)" fill="#646464"/>
<rect width="130" height="7" transform="matrix(0 -1 1 0 916 1129)" fill="#646464"/>
<rect width="143" height="7" transform="matrix(0 -1 1 0 916 980)" fill="#646464"/>
<rect width="172" height="7" transform="matrix(0 -1 1 0 916 1370)" fill="#646464"/>
<rect width="76" height="7" transform="matrix(0 -1 1 0 916 1465)" fill="#646464"/>
<rect width="129" height="7" transform="translate(787 1359)" fill="#646464"/>
<rect width="129" height="7" transform="translate(787 1426)" fill="#646464"/>
<rect width="129" height="7" transform="translate(787 1492)" fill="#646464"/>
<rect width="54" height="7" transform="matrix(0 -1 1 0 916 1537)" fill="#646464"/>
<rect width="200" height="7" transform="matrix(0 -1 1 0 780 1559)" fill="#646464"/>
<rect width="218" height="6" transform="matrix(0 -1 1 0 656 1559)" fill="#646464"/>
<rect width="218" height="6" transform="matrix(0 -1 1 0 656 1833)" fill="#646464"/>
<rect width="231" height="6" transform="matrix(0 -1 1 0 120 1572)" fill="#646464"/>
<rect width="169" height="6" transform="matrix(0 -1 1 0 156 1510)" fill="#646464"/>
<rect width="162" height="5" transform="matrix(0 -1 1 0 306 1503)" fill="#646464"/>
<rect width="162" height="5" transform="matrix(0 -1 1 0 455 1503)" fill="#646464"/>
<rect width="162" height="4" transform="matrix(0 -1 1 0 555 1503)" fill="#646464"/>
<rect width="129" height="7" transform="matrix(-1 0 0 1 1354 1359)" fill="#646464"/>
<rect width="129" height="7" transform="matrix(-1 0 0 1 1354 1426)" fill="#646464"/>
<rect width="200" height="7" transform="matrix(0 -1 -1 0 1361 1559)" fill="#646464"/>
<rect width="10" height="7" transform="matrix(0 -1 1 0 916 1566)" fill="#646464"/>
<rect width="260" height="7" transform="translate(656 1559)" fill="#646464"/>
<rect width="542" height="7" transform="translate(120 1334)" fill="#646464"/>
<rect width="14" height="7" transform="translate(162 1503)" fill="#646464"/>
<rect width="16" height="7" transform="translate(104 1565)" fill="#646464"/>
<rect width="84" height="7" transform="translate(6 1565)" fill="#646464"/>
<rect width="121" height="7" transform="translate(0 1516)" fill="#646464"/>
<rect width="14" height="7" transform="translate(642 1503)" fill="#646464"/>
<rect width="82" height="7" transform="translate(543 1503)" fill="#646464"/>
<rect width="82" height="7" transform="translate(443 1503)" fill="#646464"/>
<rect width="231" height="7" transform="translate(194 1503)" fill="#646464"/>
<rect width="455" height="7" transform="translate(157 1539)" fill="#646464"/>
<rect width="234" height="6" transform="matrix(0 1 1 0 120 1599)" fill="#646464"/>
<rect width="128" height="6" transform="matrix(0 1 1 0 0 1523)" fill="#646464"/>
<rect width="82" height="6" transform="matrix(0 1 1 0 157 1546)" fill="#646464"/>
<rect width="82" height="6" transform="matrix(0 1 1 0 606 1546)" fill="#646464"/>
<rect width="169" height="6" transform="matrix(0 1 1 0 156 1664)" fill="#646464"/>
<rect width="162" height="5" transform="matrix(0 1 1 0 306 1671)" fill="#646464"/>
<rect width="162" height="5" transform="matrix(0 1 1 0 455 1671)" fill="#646464"/>
<rect width="162" height="4" transform="matrix(0 1 1 0 555 1671)" fill="#646464"/>
<rect width="542" height="7" transform="matrix(1 0 0 -1 120 1840)" fill="#646464"/>
<rect width="14" height="7" transform="matrix(1 0 0 -1 162 1671)" fill="#646464"/>
<rect width="20" height="7" transform="matrix(1 0 0 -1 126 1671)" fill="#646464"/>
<rect width="20" height="7" transform="matrix(1 0 0 -1 126 1510)" fill="#646464"/>
<rect width="48" height="7" transform="matrix(1 0 0 -1 72 1606)" fill="#646464"/>
<rect width="55" height="7" transform="matrix(1 0 0 -1 6 1606)" fill="#646464"/>
<rect width="121" height="7" transform="matrix(1 0 0 -1 0 1658)" fill="#646464"/>
<rect width="14" height="7" transform="matrix(1 0 0 -1 642 1671)" fill="#646464"/>
<rect width="82" height="7" transform="matrix(1 0 0 -1 543 1671)" fill="#646464"/>
<rect width="82" height="7" transform="matrix(1 0 0 -1 443 1671)" fill="#646464"/>
<rect width="231" height="7" transform="matrix(1 0 0 -1 194 1671)" fill="#646464"/>
<rect width="455" height="7" transform="matrix(1 0 0 -1 157 1635)" fill="#646464"/>
<rect width="224" height="7" transform="translate(959 1033)" fill="#646464"/>
<rect width="236" height="7" transform="translate(953 2237)" fill="#646464"/>
<rect width="224" height="7" transform="translate(959 988)" fill="#646464"/>
<rect width="224" height="7" transform="translate(959)" fill="#646464"/>
<rect width="65" height="7" transform="translate(959 511)" fill="#646464"/>
<rect width="65" height="7" transform="translate(1118 511)" fill="#646464"/>
<rect width="65" height="7" transform="translate(959 561)" fill="#646464"/>
<rect width="65" height="7" transform="translate(1118 561)" fill="#646464"/>
<rect width="65" height="7" transform="translate(959 1559)" fill="#646464"/>
<rect width="106" height="6" transform="translate(1018 1634)" fill="#646464"/>
<rect width="106" height="6" transform="translate(1018 1475)" fill="#646464"/>
<rect width="106" height="6" transform="translate(1018 587)" fill="#646464"/>
<rect width="106" height="6" transform="translate(1018 428)" fill="#646464"/>
<rect width="48" height="4" transform="translate(1047 457)" fill="#646464"/>
<rect width="23" height="1" transform="translate(1024 457)" fill="#646464"/>
<rect width="23" height="1" transform="translate(1024 460)" fill="#646464"/>
<rect width="23" height="1" transform="translate(1024 463)" fill="#646464"/>
<rect width="23" height="1" transform="translate(1024 466)" fill="#646464"/>
<rect width="23" height="1" transform="translate(1024 469)" fill="#646464"/>
<rect width="23" height="1" transform="translate(1024 472)" fill="#646464"/>
<rect width="23" height="1" transform="translate(1024 475)" fill="#646464"/>
<rect width="23" height="1" transform="translate(1024 478)" fill="#646464"/>
<rect width="23" height="1" transform="translate(1024 481)" fill="#646464"/>
<rect width="23" height="1" transform="translate(1024 484)" fill="#646464"/>
<rect width="23" height="1" transform="translate(1024 487)" fill="#646464"/>
<rect width="23" height="1" transform="translate(1095 459)" fill="#646464"/>
<rect width="23" height="1" transform="translate(1095 462)" fill="#646464"/>
<rect width="23" height="1" transform="translate(1095 465)" fill="#646464"/>
<rect width="23" height="1" transform="translate(1095 468)" fill="#646464"/>
<rect width="23" height="1" transform="translate(1095 471)" fill="#646464"/>
<rect width="23" height="1" transform="translate(1095 474)" fill="#646464"/>
<rect width="23" height="1" transform="translate(1095 477)" fill="#646464"/>
<rect width="23" height="1" transform="translate(1095 480)" fill="#646464"/>
<rect width="23" height="1" transform="translate(1095 483)" fill="#646464"/>
<rect width="23" height="1" transform="translate(1095 486)" fill="#646464"/>
<rect width="23" height="1" transform="translate(1095 489)" fill="#646464"/>
<rect width="23" height="1" transform="matrix(0 -1 1 0 1056 457.031)" fill="#646464"/>
<rect width="23" height="1" transform="matrix(0 -1 1 0 1059 457.028)" fill="#646464"/>
<rect width="23" height="1" transform="matrix(0 -1 1 0 1062 457.025)" fill="#646464"/>
<rect width="23" height="1" transform="matrix(0 -1 1 0 1065 457.022)" fill="#646464"/>
<rect width="23" height="1" transform="matrix(0 -1 1 0 1068 457.019)" fill="#646464"/>
<rect width="23" height="1" transform="matrix(0 -1 1 0 1071 457.016)" fill="#646464"/>
<rect width="23" height="1" transform="matrix(0 -1 1 0 1074 457.012)" fill="#646464"/>
<rect width="23" height="1" transform="matrix(0 -1 1 0 1077 457.009)" fill="#646464"/>
<rect width="23" height="1" transform="matrix(0 -1 1 0 1080 457.006)" fill="#646464"/>
<rect width="23" height="1" transform="matrix(0 -1 1 0 1083 457.003)" fill="#646464"/>
<rect width="23" height="1" transform="matrix(0 -1 1 0 1086 457)" fill="#646464"/>
<rect width="29" height="4" transform="matrix(0 -1 1 0 1047 490)" fill="#646464"/>
<rect width="29" height="4" transform="matrix(0 -1 1 0 1091 490)" fill="#646464"/>
<rect width="48" height="4" transform="translate(1047 1504)" fill="#646464"/>
<rect width="23" height="1" transform="translate(1024 1504)" fill="#646464"/>
<rect width="23" height="1" transform="translate(1024 1507)" fill="#646464"/>
<rect width="21" height="1" transform="translate(1225 2165)" fill="#646464"/>
<rect width="21" height="1" transform="matrix(0 -1 1 0 1250 2165)" fill="#646464"/>
<rect width="21" height="1" transform="matrix(0 -1 1 0 1250 2165)" fill="#646464"/>
<rect width="21" height="1" transform="matrix(0 -1 1 0 1253 2165)" fill="#646464"/>
<rect width="21" height="1" transform="matrix(0 -1 1 0 1256 2165)" fill="#646464"/>
<rect width="21" height="1" transform="matrix(0 -1 1 0 1256 2165)" fill="#646464"/>
<rect width="21" height="1" transform="matrix(0 -1 1 0 1259 2165)" fill="#646464"/>
<rect width="21" height="1" transform="matrix(0 -1 1 0 1262 2165)" fill="#646464"/>
<rect width="21" height="1" transform="matrix(0 -1 1 0 1262 2165)" fill="#646464"/>
<rect width="21" height="1" transform="matrix(0 -1 1 0 1265 2165)" fill="#646464"/>
<rect width="21" height="1" transform="matrix(0 -1 1 0 1268 2165)" fill="#646464"/>
<rect width="21" height="1" transform="matrix(0 -1 1 0 1268 2165)" fill="#646464"/>
<rect width="21" height="1" transform="matrix(0 -1 1 0 1271 2165)" fill="#646464"/>
<rect width="21" height="1" transform="matrix(0 -1 1 0 1274 2165)" fill="#646464"/>
<rect width="21" height="1" transform="matrix(0 -1 1 0 1274 2165)" fill="#646464"/>
<rect width="21" height="1" transform="matrix(0 -1 1 0 1277 2165)" fill="#646464"/>
<rect width="21" height="1" transform="matrix(0 -1 1 0 1280 2165)" fill="#646464"/>
<rect width="21" height="1" transform="matrix(0 -1 1 0 1280 2165)" fill="#646464"/>
<rect width="21" height="1" transform="matrix(0 -1 1 0 1283 2165)" fill="#646464"/>
<rect width="21" height="1" transform="matrix(0 -1 1 0 1286 2165)" fill="#646464"/>
<rect width="21" height="1" transform="matrix(0 -1 1 0 1289 2165)" fill="#646464"/>
<rect width="21" height="1" transform="translate(1225 2168)" fill="#646464"/>
<rect width="21" height="1" transform="translate(1225 2171)" fill="#646464"/>
<rect width="21" height="1" transform="translate(1225 2174)" fill="#646464"/>
<rect width="21" height="1" transform="translate(1225 2177)" fill="#646464"/>
<rect width="21" height="1" transform="translate(1225 2180)" fill="#646464"/>
<rect width="21" height="1" transform="translate(1225 2183)" fill="#646464"/>
<rect width="21" height="1" transform="translate(1225 2186)" fill="#646464"/>
<rect width="21" height="1" transform="translate(1225 2189)" fill="#646464"/>
<rect width="21" height="1" transform="translate(1225 2192)" fill="#646464"/>
<rect width="21" height="1" transform="translate(1225 2195)" fill="#646464"/>
<rect width="21" height="1" transform="translate(1225 2198)" fill="#646464"/>
<rect width="21" height="1" transform="translate(1225 2201)" fill="#646464"/>
<rect width="21" height="1" transform="translate(1225 2204)" fill="#646464"/>
<rect width="21" height="1" transform="translate(1225 2207)" fill="#646464"/>
<rect width="21" height="1" transform="translate(1225 2210)" fill="#646464"/>
<rect width="21" height="1" transform="translate(1294 2167)" fill="#646464"/>
<rect width="21" height="1" transform="translate(1294 2170)" fill="#646464"/>
<rect width="21" height="1" transform="translate(1294 2173)" fill="#646464"/>
<rect width="21" height="1" transform="translate(1294 2176)" fill="#646464"/>
<rect width="21" height="1" transform="translate(1294 2179)" fill="#646464"/>
<rect width="21" height="1" transform="translate(1294 2182)" fill="#646464"/>
<rect width="21" height="1" transform="translate(1294 2185)" fill="#646464"/>
<rect width="21" height="1" transform="translate(1294 2188)" fill="#646464"/>
<rect width="21" height="1" transform="translate(1294 2191)" fill="#646464"/>
<rect width="21" height="1" transform="translate(1294 2194)" fill="#646464"/>
<rect width="21" height="1" transform="translate(1294 2197)" fill="#646464"/>
<rect width="21" height="1" transform="translate(1294 2200)" fill="#646464"/>
<rect width="21" height="1" transform="translate(1294 2203)" fill="#646464"/>
<rect width="21" height="1" transform="translate(1294 2206)" fill="#646464"/>
<rect width="21" height="1" transform="translate(1294 2209)" fill="#646464"/>
<rect width="21" height="1" transform="translate(1294 2212)" fill="#646464"/>
<rect width="23" height="1" transform="translate(1024 1510)" fill="#646464"/>
<rect width="23" height="1" transform="translate(1024 1513)" fill="#646464"/>
<rect width="23" height="1" transform="translate(1024 1516)" fill="#646464"/>
<rect width="23" height="1" transform="translate(1024 1519)" fill="#646464"/>
<rect width="23" height="1" transform="translate(1024 1522)" fill="#646464"/>
<rect width="23" height="1" transform="translate(1024 1525)" fill="#646464"/>
<rect width="23" height="1" transform="translate(1024 1528)" fill="#646464"/>
<rect width="23" height="1" transform="translate(1024 1531)" fill="#646464"/>
<rect width="23" height="1" transform="translate(1024 1534)" fill="#646464"/>
<rect width="23" height="1" transform="translate(1095 1506)" fill="#646464"/>
<rect width="23" height="1" transform="translate(1095 1509)" fill="#646464"/>
<rect width="23" height="1" transform="translate(1095 1512)" fill="#646464"/>
<rect width="23" height="1" transform="translate(1095 1515)" fill="#646464"/>
<rect width="23" height="1" transform="translate(1095 1518)" fill="#646464"/>
<rect width="23" height="1" transform="translate(1095 1521)" fill="#646464"/>
<rect width="23" height="1" transform="translate(1095 1524)" fill="#646464"/>
<rect width="23" height="1" transform="translate(1095 1527)" fill="#646464"/>
<rect width="23" height="1" transform="translate(1095 1530)" fill="#646464"/>
<rect width="23" height="1" transform="translate(1095 1533)" fill="#646464"/>
<rect width="23" height="1" transform="translate(1095 1536)" fill="#646464"/>
<rect width="23" height="1" transform="matrix(0 -1 1 0 1054 1504.03)" fill="#646464"/>
<rect width="23" height="1" transform="matrix(0 -1 1 0 1057 1504.03)" fill="#646464"/>
<rect width="23" height="1" transform="matrix(0 -1 1 0 1060 1504.02)" fill="#646464"/>
<rect width="23" height="1" transform="matrix(0 -1 1 0 1063 1504.02)" fill="#646464"/>
<rect width="23" height="1" transform="matrix(0 -1 1 0 1066 1504.02)" fill="#646464"/>
<rect width="23" height="1" transform="matrix(0 -1 1 0 1069 1504.02)" fill="#646464"/>
<rect width="23" height="1" transform="matrix(0 -1 1 0 1072 1504.01)" fill="#646464"/>
<rect width="23" height="1" transform="matrix(0 -1 1 0 1075 1504.01)" fill="#646464"/>
<rect width="23" height="1" transform="matrix(0 -1 1 0 1078 1504.01)" fill="#646464"/>
<rect width="23" height="1" transform="matrix(0 -1 1 0 1081 1504)" fill="#646464"/>
<rect width="23" height="1" transform="matrix(0 -1 1 0 1084 1504)" fill="#646464"/>
<rect width="29" height="4" transform="matrix(0 -1 1 0 1047 1537)" fill="#646464"/>
<rect width="29" height="4" transform="matrix(0 -1 1 0 1091 1537)" fill="#646464"/>
<rect width="48" height="4" transform="translate(1246 2165)" fill="#646464"/>
<rect width="44" height="4" transform="matrix(0 -1 1 0 1246 2213)" fill="#646464"/>
<rect width="44" height="4" transform="matrix(0 -1 1 0 1290 2213)" fill="#646464"/>
<rect width="21" height="1" transform="translate(825 2165)" fill="#646464"/>
<rect width="21" height="1" transform="matrix(0 -1 1 0 850 2165)" fill="#646464"/>
<rect width="21" height="1" transform="matrix(0 -1 1 0 850 2165)" fill="#646464"/>
<rect width="21" height="1" transform="matrix(0 -1 1 0 853 2165)" fill="#646464"/>
<rect width="21" height="1" transform="matrix(0 -1 1 0 856 2165)" fill="#646464"/>
<rect width="21" height="1" transform="matrix(0 -1 1 0 856 2165)" fill="#646464"/>
<rect width="21" height="1" transform="matrix(0 -1 1 0 859 2165)" fill="#646464"/>
<rect width="21" height="1" transform="matrix(0 -1 1 0 862 2165)" fill="#646464"/>
<rect width="21" height="1" transform="matrix(0 -1 1 0 862 2165)" fill="#646464"/>
<rect width="21" height="1" transform="matrix(0 -1 1 0 865 2165)" fill="#646464"/>
<rect width="21" height="1" transform="matrix(0 -1 1 0 868 2165)" fill="#646464"/>
<rect width="21" height="1" transform="matrix(0 -1 1 0 868 2165)" fill="#646464"/>
<rect width="21" height="1" transform="matrix(0 -1 1 0 871 2165)" fill="#646464"/>
<rect width="21" height="1" transform="matrix(0 -1 1 0 874 2165)" fill="#646464"/>
<rect width="21" height="1" transform="matrix(0 -1 1 0 874 2165)" fill="#646464"/>
<rect width="21" height="1" transform="matrix(0 -1 1 0 877 2165)" fill="#646464"/>
<rect width="21" height="1" transform="matrix(0 -1 1 0 880 2165)" fill="#646464"/>
<rect width="21" height="1" transform="matrix(0 -1 1 0 880 2165)" fill="#646464"/>
<rect width="21" height="1" transform="matrix(0 -1 1 0 883 2165)" fill="#646464"/>
<rect width="21" height="1" transform="matrix(0 -1 1 0 886 2165)" fill="#646464"/>
<rect width="21" height="1" transform="matrix(0 -1 1 0 889 2165)" fill="#646464"/>
<rect width="21" height="1" transform="translate(825 2168)" fill="#646464"/>
<rect width="21" height="1" transform="translate(825 2171)" fill="#646464"/>
<rect width="21" height="1" transform="translate(825 2174)" fill="#646464"/>
<rect width="21" height="1" transform="translate(825 2177)" fill="#646464"/>
<rect width="21" height="1" transform="translate(825 2180)" fill="#646464"/>
<rect width="21" height="1" transform="translate(825 2183)" fill="#646464"/>
<rect width="21" height="1" transform="translate(825 2186)" fill="#646464"/>
<rect width="21" height="1" transform="translate(825 2189)" fill="#646464"/>
<rect width="21" height="1" transform="translate(825 2192)" fill="#646464"/>
<rect width="21" height="1" transform="translate(825 2195)" fill="#646464"/>
<rect width="21" height="1" transform="translate(825 2198)" fill="#646464"/>
<rect width="21" height="1" transform="translate(825 2201)" fill="#646464"/>
<rect width="21" height="1" transform="translate(825 2204)" fill="#646464"/>
<rect width="21" height="1" transform="translate(825 2207)" fill="#646464"/>
<rect width="21" height="1" transform="translate(825 2210)" fill="#646464"/>
<rect width="21" height="1" transform="translate(894 2167)" fill="#646464"/>
<rect width="21" height="1" transform="translate(894 2170)" fill="#646464"/>
<rect width="21" height="1" transform="translate(894 2173)" fill="#646464"/>
<rect width="21" height="1" transform="translate(894 2176)" fill="#646464"/>
<rect width="21" height="1" transform="translate(894 2179)" fill="#646464"/>
<rect width="21" height="1" transform="translate(894 2182)" fill="#646464"/>
<rect width="21" height="1" transform="translate(894 2185)" fill="#646464"/>
<rect width="21" height="1" transform="translate(894 2188)" fill="#646464"/>
<rect width="21" height="1" transform="translate(894 2191)" fill="#646464"/>
<rect width="21" height="1" transform="translate(894 2194)" fill="#646464"/>
<rect width="21" height="1" transform="translate(894 2197)" fill="#646464"/>
<rect width="21" height="1" transform="translate(894 2200)" fill="#646464"/>
<rect width="21" height="1" transform="translate(894 2203)" fill="#646464"/>
<rect width="21" height="1" transform="translate(894 2206)" fill="#646464"/>
<rect width="21" height="1" transform="translate(894 2209)" fill="#646464"/>
<rect width="21" height="1" transform="translate(894 2212)" fill="#646464"/>
<rect width="48" height="4" transform="translate(846 2165)" fill="#646464"/>
<rect width="44" height="4" transform="matrix(0 -1 1 0 846 2213)" fill="#646464"/>
<rect width="44" height="4" transform="matrix(0 -1 1 0 890 2213)" fill="#646464"/>
<rect width="65" height="7" transform="translate(1118 1559)" fill="#646464"/>
<rect width="65" height="7" transform="translate(959 1609)" fill="#646464"/>
<rect width="65" height="7" transform="translate(1118 1609)" fill="#646464"/>
<rect width="48" height="7" transform="matrix(0 -1 -1 0 1225 1437)" fill="#646464"/>
<rect width="78" height="6" transform="matrix(0 -1 -1 0 1124 1559)" fill="#646464"/>
<rect width="78" height="6" transform="matrix(0 -1 -1 0 1024 1559)" fill="#646464"/>
<rect width="78" height="6" transform="matrix(0 -1 -1 0 1124 512)" fill="#646464"/>
<rect width="78" height="6" transform="matrix(0 -1 -1 0 1024 512)" fill="#646464"/>
<rect width="81" height="7" transform="matrix(0 -1 -1 0 1225 1537)" fill="#646464"/>
<rect width="18" height="6" transform="matrix(0 -1 -1 0 1124 1634)" fill="#646464"/>
<rect width="18" height="6" transform="matrix(0 -1 -1 0 1024 1634)" fill="#646464"/>
<rect width="19" height="6" transform="matrix(0 -1 -1 0 1124 587)" fill="#646464"/>
<rect width="19" height="6" transform="matrix(0 -1 -1 0 1024 587)" fill="#646464"/>
<rect width="394" height="6" transform="matrix(0 -1 -1 0 1494 1559)" fill="#646464"/>
<rect width="12" height="7" transform="matrix(0 -1 -1 0 1541 1849)" fill="#646464"/>
<rect width="10" height="7" transform="matrix(0 -1 -1 0 1225 1566)" fill="#646464"/>
<rect width="19" height="7" transform="matrix(0 -1 -1 0 1225 1628)" fill="#646464"/>
<rect width="132" height="7" transform="matrix(0 -1 -1 0 1225 1778)" fill="#646464"/>
<rect width="131" height="7" transform="matrix(0 -1 -1 0 1225 1927)" fill="#646464"/>
<rect width="140" height="7" transform="matrix(0 -1 -1 0 1225 2085)" fill="#646464"/>
<rect width="150" height="7" transform="matrix(0 -1 -1 0 1225 2244)" fill="#646464"/>
<rect width="30" height="7" transform="matrix(0 -1 -1 0 1262 2094)" fill="#646464"/>
<rect width="105" height="7" transform="matrix(0 -1 -1 0 1322 2242)" fill="#646464"/>
<rect width="299" height="6" transform="matrix(0 -1 -1 0 1485 2235)" fill="#646464"/>
<rect width="269" height="7" transform="matrix(-1 0 0 1 1494 1559)" fill="#646464"/>
<rect width="162" height="7" transform="matrix(-1 0 0 1 1656 1165)" fill="#646464"/>
<rect width="115" height="7" transform="matrix(-1 0 0 1 1656 1298)" fill="#646464"/>
<rect width="169" height="7" transform="matrix(-1 0 0 1 1710 1350)" fill="#646464"/>
<rect width="163" height="7" transform="matrix(-1 0 0 1 1704 1499)" fill="#646464"/>
<rect width="136" height="7" transform="matrix(-1 0 0 1 1704 1650)" fill="#646464"/>
<rect width="139" height="7" transform="matrix(-1 0 0 1 1704 1699)" fill="#646464"/>
<rect width="216" height="7" transform="matrix(-1 0 0 1 1704 1849)" fill="#646464"/>
<rect width="31" height="7" transform="matrix(0 -1 1 0 916 1179)" fill="#646464"/>
<rect width="455" height="7" transform="matrix(0 -1 1 0 780 1316)" fill="#646464"/>
<rect width="129" height="7" transform="matrix(-1 0 0 1 1354 861)" fill="#646464"/>
<rect width="129" height="7" transform="matrix(-1 0 0 1 1354 1011)" fill="#646464"/>
<rect width="129" height="7" transform="matrix(-1 0 0 1 1354 1160)" fill="#646464"/>
<rect width="129" height="7" transform="matrix(-1 0 0 1 1354 1309)" fill="#646464"/>
<rect width="24" height="5" transform="matrix(0 -1 -1 0 1260 861)" fill="#646464"/>
<rect width="130" height="7" transform="matrix(0 -1 -1 0 1225 1129)" fill="#646464"/>
<rect width="150" height="7" transform="matrix(0 -1 -1 0 1225 980)" fill="#646464"/>
<rect width="172" height="7" transform="matrix(0 -1 -1 0 1225 1370)" fill="#646464"/>
<rect width="31" height="7" transform="matrix(0 -1 -1 0 1225 1179)" fill="#646464"/>
<rect width="455" height="7" transform="matrix(0 -1 -1 0 1361 1316)" fill="#646464"/>
<rect width="270" height="7" transform="matrix(-1 0 0 1 1495 1609)" fill="#646464"/>
<rect width="129" height="7" transform="matrix(-1 0 0 1 1354 1759)" fill="#646464"/>
<rect width="129" height="7" transform="matrix(-1 0 0 1 1354 1908)" fill="#646464"/>
<rect width="129" height="7" transform="matrix(-1 0 0 1 1354 2057)" fill="#646464"/>
<rect width="37" height="7" transform="matrix(-1 0 0 1 1262 2094)" fill="#646464"/>
<rect width="90" height="7" transform="matrix(-1 0 0 1 1315 2137)" fill="#646464"/>
<rect width="163" height="7" transform="matrix(-1 0 0 1 1485 2235)" fill="#646464"/>
<rect width="448" height="7" transform="matrix(0 -1 -1 0 1361 2064)" fill="#646464"/>
<rect width="19" height="7" transform="matrix(0 -1 1 0 915 1628)" fill="#646464"/>
<rect width="132" height="7" transform="matrix(0 -1 1 0 915 1778)" fill="#646464"/>
<rect width="131" height="7" transform="matrix(0 -1 1 0 915 1927)" fill="#646464"/>
<rect width="140" height="7" transform="matrix(0 -1 1 0 915 2085)" fill="#646464"/>
<rect width="150" height="7" transform="matrix(0 -1 1 0 915 2244)" fill="#646464"/>
<rect width="30" height="7" transform="matrix(0 -1 1 0 878 2094)" fill="#646464"/>
<rect width="105" height="7" transform="matrix(0 -1 1 0 818 2242)" fill="#646464"/>
<rect width="442" height="6" transform="matrix(0 -1 1 0 443 2385)" fill="#646464"/>
<rect width="442" height="6" transform="matrix(0 -1 1 0 1693 2385)" fill="#646464"/>
<rect width="299" height="6" transform="matrix(0 -1 1 0 656 2235)" fill="#646464"/>
<rect width="259" height="7" transform="translate(656 1609)" fill="#646464"/>
<rect width="129" height="7" transform="translate(786 1759)" fill="#646464"/>
<rect width="213" height="7" transform="translate(443 1936)" fill="#646464"/>
<rect width="175" height="7" transform="translate(443 2385)" fill="#646464"/>
<rect width="112" height="7" transform="matrix(0 -1 1 0 611 2385)" fill="#646464"/>
<rect width="251" height="7" transform="matrix(0 -1 1 0 680 2542)" fill="#646464"/>
<rect width="10" height="7" transform="translate(618 2284)" fill="#646464"/>
<rect width="101" height="7" transform="translate(761 2285)" fill="#646464"/>
<rect width="91" height="7" transform="translate(824 2435)" fill="#646464"/>
<rect width="64" height="7" transform="translate(616 2346)" fill="#646464"/>
<rect width="91" height="7" transform="translate(1226 2435)" fill="#646464"/>
<rect width="130" height="7" transform="translate(687 2535)" fill="#646464"/>
<rect width="130" height="7" transform="translate(1324 2535)" fill="#646464"/>
<rect width="101" height="7" transform="translate(881 2285)" fill="#646464"/>
<rect width="59" height="7" transform="translate(1001 2285)" fill="#646464"/>
<rect width="101" height="7" transform="translate(642 2285)" fill="#646464"/>
<rect width="251" height="7" transform="matrix(0 -1 1 0 817 2542)" fill="#646464"/>
<rect width="302" height="7" transform="matrix(0 -1 1 0 915 2593)" fill="#646464"/>
<rect width="297" height="7" transform="translate(922 2586)" fill="#646464"/>
<rect width="251" height="7" transform="matrix(0 -1 -1 0 1461 2542)" fill="#646464"/>
<rect width="10" height="7" transform="matrix(-1 0 0 1 1523 2285)" fill="#646464"/>
<rect width="99" height="7" transform="matrix(-1 0 0 1 1380 2285)" fill="#646464"/>
<rect width="100" height="7" transform="matrix(-1 0 0 1 1262 2285)" fill="#646464"/>
<rect width="59" height="7" transform="matrix(-1 0 0 1 1142 2285)" fill="#646464"/>
<rect width="101" height="7" transform="matrix(-1 0 0 1 1500 2285)" fill="#646464"/>
<rect width="62" height="7" transform="matrix(-1 0 0 1 1523 2346)" fill="#646464"/>
<rect width="251" height="7" transform="matrix(0 -1 -1 0 1324 2542)" fill="#646464"/>
<rect width="302" height="7" transform="matrix(0 -1 -1 0 1226 2593)" fill="#646464"/>
<rect width="62" height="7" transform="matrix(0 -1 1 0 611 2005)" fill="#646464"/>
<rect width="126" height="7" transform="matrix(0 -1 1 0 611 2150)" fill="#646464"/>
<rect width="85" height="7" transform="matrix(0 -1 1 0 611 2253)" fill="#646464"/>
<rect width="112" height="7" transform="matrix(0 -1 1 0 1523 2385)" fill="#646464"/>
<rect width="62" height="7" transform="matrix(0 -1 1 0 1523 2005)" fill="#646464"/>
<rect width="126" height="7" transform="matrix(0 -1 1 0 1523 2150)" fill="#646464"/>
<rect width="83" height="7" transform="matrix(0 -1 1 0 1523 2251)" fill="#646464"/>
<rect width="163" height="7" transform="translate(1530 2235)" fill="#646464"/>
<rect width="163" height="7" transform="translate(1530 2086)" fill="#646464"/>
<rect width="214" height="7" transform="matrix(-1 0 0 1 1699 1936)" fill="#646464"/>
<rect width="176" height="7" transform="matrix(-1 0 0 1 1699 2385)" fill="#646464"/>
<rect width="129" height="7" transform="translate(786 2057)" fill="#646464"/>
<rect width="37" height="7" transform="translate(878 2094)" fill="#646464"/>
<rect width="90" height="7" transform="translate(825 2137)" fill="#646464"/>
<rect width="162" height="7" transform="translate(656 2235)" fill="#646464"/>
<rect width="448" height="7" transform="matrix(0 -1 1 0 779 2064)" fill="#646464"/>
<rect width="214" height="7" transform="translate(449 1111)" fill="#646464"/>
<rect width="162" height="3" transform="translate(449 965)" fill="#646464"/>
<rect width="162" height="3" transform="translate(449 861)" fill="#646464"/>
<rect width="162" height="3" transform="translate(449 761)" fill="#646464"/>
<rect width="72" height="7" transform="translate(844 512)" fill="#646464"/>
<rect width="73" height="7" transform="translate(753 512)" fill="#646464"/>
<rect width="499" height="7" transform="matrix(0 -1 1 0 747 519)" fill="#646464"/>
<rect width="705" height="7" transform="matrix(0 -1 1 0 442 1118)" fill="#646464"/>
<rect width="372" height="7" transform="matrix(-1 0 0 1 1591 561)" fill="#646464"/>
<rect width="76" height="7" transform="matrix(0 -1 -1 0 1598 612)" fill="#646464"/>
<rect width="77" height="7" transform="matrix(0 -1 -1 0 551 612)" fill="#646464"/>
<rect width="203" height="7" transform="matrix(-1 0 0 1 1598 512)" fill="#646464"/>
<rect width="205" height="7" transform="matrix(-1 0 0 1 1693 612)" fill="#646464"/>
<rect width="181" height="7" transform="matrix(0 -1 -1 0 1531 830)" fill="#646464"/>
<rect width="181" height="6" transform="matrix(0 -1 -1 0 1494 800)" fill="#646464"/>
<rect width="288" height="6" transform="matrix(0 -1 -1 0 1494 1118)" fill="#646464"/>
<rect width="11" height="7" transform="matrix(0 -1 -1 0 1531 630)" fill="#646464"/>
<rect width="262" height="7" transform="matrix(0 -1 -1 0 1531 1111)" fill="#646464"/>
<rect width="199" height="7" transform="matrix(-1 0 0 1 1693 1111)" fill="#646464"/>
<rect width="30" height="7" transform="matrix(-1 0 0 1 1524 1077)" fill="#646464"/>
<rect width="30" height="7" transform="matrix(-1 0 0 1 1524 861)" fill="#646464"/>
<rect width="30" height="7" transform="matrix(-1 0 0 1 1524 762)" fill="#646464"/>
<rect width="19" height="6" transform="matrix(-1 0 0 1 1244 830)" fill="#646464"/>
<rect width="191" height="7" transform="matrix(0 -1 -1 0 1541 1569)" fill="#646464"/>
<rect width="229" height="7" transform="matrix(0 -1 -1 0 1541 1816)" fill="#646464"/>
<rect width="233" height="7" transform="matrix(0 -1 -1 0 1495 1849)" fill="#646464"/>
<rect width="61" height="7" transform="matrix(0 -1 -1 0 1541 1359)" fill="#646464"/>
<rect width="126" height="7" transform="matrix(0 -1 -1 0 1656 1298)" fill="#646464"/>
<rect width="705" height="7" transform="matrix(0 -1 -1 0 1700 1118)" fill="#646464"/>
<rect width="499" height="6" transform="matrix(0 -1 -1 0 1710 1856)" fill="#646464"/>
<rect width="518" height="6" transform="matrix(0 -1 1 0 953 518)" fill="#646464"/>
<rect width="533" height="6" transform="matrix(0 -1 1 0 953 1566)" fill="#646464"/>
<rect width="533" height="6" transform="matrix(0 -1 1 0 1183 1566)" fill="#646464"/>
<rect width="628" height="6" transform="matrix(0 -1 1 0 953 2237)" fill="#646464"/>
<rect width="628" height="6" transform="matrix(0 -1 1 0 1183 2237)" fill="#646464"/>
<rect width="518" height="6" transform="matrix(0 -1 1 0 1183 518)" fill="#646464"/>
<rect width="434" height="6" transform="matrix(0 -1 1 0 953 995)" fill="#646464"/>
<rect width="434" height="6" transform="matrix(0 -1 1 0 1183 995)" fill="#646464"/>
<rect width="12" height="7" transform="matrix(0 -1 1 0 916 32)" fill="#646464"/>
<rect width="13" height="6" transform="matrix(0 -1 1 0 1219 33)" fill="#646464"/>
<rect width="31" height="6" transform="matrix(0 -1 1 0 1219 82)" fill="#646464"/>
<rect width="81" height="6" transform="matrix(0 -1 1 0 1219 182)" fill="#646464"/>
<rect width="318" height="6" transform="matrix(0 -1 1 0 1219 519)" fill="#646464"/>
<rect width="186" height="7" transform="matrix(0 -1 1 0 916 233)" fill="#646464"/>
<rect width="271" height="7" transform="matrix(0 -1 1 0 916 519)" fill="#646464"/>
<rect width="499" height="7" transform="matrix(0 -1 1 0 1388 519)" fill="#646464"/>
</svg>
