<svg width="1710" height="2593" viewBox="0 0 1710 2593" fill="none" xmlns="http://www.w3.org/2000/svg">
<rect width="1710" height="2593" fill="white"/>
<rect width="206" height="7" transform="translate(1189 13)" fill="#333333"/>
<rect width="206" height="7" transform="translate(747 13)" fill="#333333"/>
<rect width="162" height="7" transform="translate(754 213)" fill="#333333"/>
<rect width="163" height="6" transform="translate(1225 113)" fill="#333333"/>
<rect width="163" height="6" transform="translate(1225 213)" fill="#333333"/>
<rect width="72" height="6" transform="translate(1316 363)" fill="#333333"/>
<rect width="72" height="6" transform="translate(1225 363)" fill="#333333"/>
<rect width="72" height="6" transform="translate(1316 513)" fill="#333333"/>
<rect width="72" height="6" transform="translate(1225 513)" fill="#333333"/>
<rect width="162" height="7" transform="translate(754 363)" fill="#333333"/>
<rect width="372" height="7" transform="translate(551 561)" fill="#333333"/>
<rect width="102" height="5" transform="translate(449 413)" fill="#333333"/>
<rect width="94" height="7" transform="matrix(0 -1 1 0 544 512)" fill="#333333"/>
<rect width="102" height="5" transform="matrix(-1 0 0 1 1693 413)" fill="#333333"/>
<rect width="94" height="7" transform="matrix(0 -1 -1 0 1598 512)" fill="#333333"/>
<rect width="203" height="7" transform="translate(544 512)" fill="#333333"/>
<rect width="136" height="7" transform="translate(780 762)" fill="#333333"/>
<rect width="131" height="7" transform="matrix(0 -1 1 0 916 731)" fill="#333333"/>
<rect width="44" height="7" transform="matrix(0 -1 1 0 916 793)" fill="#333333"/>
<rect width="13" height="7" transform="matrix(0 -1 1 0 916 581)" fill="#333333"/>
<rect width="194" height="7" transform="matrix(0 -1 1 0 780 762)" fill="#333333"/>
<rect width="214" height="7" transform="translate(449 612)" fill="#333333"/>
<rect width="211" height="7" transform="matrix(0 -1 1 0 611 830)" fill="#333333"/>
<rect width="181" height="7" transform="matrix(0 -1 1 0 656 800)" fill="#333333"/>
<rect width="281" height="7" transform="matrix(0 -1 1 0 656 1111)" fill="#333333"/>
<rect width="269" height="7" transform="matrix(0 -1 1 0 611 1118)" fill="#333333"/>
<rect width="214" height="7" transform="translate(449 612)" fill="#333333"/>
<rect width="260" height="7" transform="translate(663 793)" fill="#333333"/>
<rect width="136" height="7" transform="matrix(-1 0 0 1 1362 762)" fill="#333333"/>
<rect width="131" height="7" transform="matrix(0 -1 -1 0 1226 731)" fill="#333333"/>
<rect width="44" height="7" transform="matrix(0 -1 -1 0 1226 793)" fill="#333333"/>
<rect width="13" height="7" transform="matrix(0 -1 -1 0 1226 581)" fill="#333333"/>
<rect width="194" height="7" transform="matrix(0 -1 -1 0 1362 762)" fill="#333333"/>
<rect width="269" height="7" transform="matrix(-1 0 0 1 1488 793)" fill="#333333"/>
<rect width="233" height="7" transform="matrix(-1 0 0 1 1488 830)" fill="#333333"/>
<rect width="227" height="7" transform="translate(663 830)" fill="#333333"/>
<rect width="129" height="7" transform="translate(787 861)" fill="#333333"/>
<rect width="129" height="7" transform="translate(787 1011)" fill="#333333"/>
<rect width="129" height="7" transform="translate(787 1160)" fill="#333333"/>
<rect width="129" height="7" transform="translate(787 1309)" fill="#333333"/>
<rect width="24" height="7" transform="translate(899 830)" fill="#333333"/>
<rect width="24" height="6" transform="matrix(0 -1 1 0 884 861)" fill="#333333"/>
<rect width="130" height="7" transform="matrix(0 -1 1 0 916 1129)" fill="#333333"/>
<rect width="143" height="7" transform="matrix(0 -1 1 0 916 980)" fill="#333333"/>
<rect width="172" height="7" transform="matrix(0 -1 1 0 916 1370)" fill="#333333"/>
<rect width="76" height="7" transform="matrix(0 -1 1 0 916 1465)" fill="#333333"/>
<rect width="129" height="7" transform="translate(787 1359)" fill="#333333"/>
<rect width="129" height="7" transform="translate(787 1426)" fill="#333333"/>
<rect width="129" height="7" transform="translate(787 1492)" fill="#333333"/>
<rect width="54" height="7" transform="matrix(0 -1 1 0 916 1537)" fill="#333333"/>
<rect width="200" height="7" transform="matrix(0 -1 1 0 780 1559)" fill="#333333"/>
<rect width="218" height="6" transform="matrix(0 -1 1 0 656 1559)" fill="#333333"/>
<rect width="218" height="6" transform="matrix(0 -1 1 0 656 1833)" fill="#333333"/>
<rect width="231" height="6" transform="matrix(0 -1 1 0 120 1572)" fill="#333333"/>
<rect width="169" height="6" transform="matrix(0 -1 1 0 156 1510)" fill="#333333"/>
<rect width="162" height="5" transform="matrix(0 -1 1 0 306 1503)" fill="#333333"/>
<rect width="162" height="5" transform="matrix(0 -1 1 0 455 1503)" fill="#333333"/>
<rect width="162" height="4" transform="matrix(0 -1 1 0 555 1503)" fill="#333333"/>
<rect width="129" height="7" transform="matrix(-1 0 0 1 1354 1359)" fill="#333333"/>
<rect width="129" height="7" transform="matrix(-1 0 0 1 1354 1426)" fill="#333333"/>
<rect width="200" height="7" transform="matrix(0 -1 -1 0 1361 1559)" fill="#333333"/>
<rect width="10" height="7" transform="matrix(0 -1 1 0 916 1566)" fill="#333333"/>
<rect width="260" height="7" transform="translate(656 1559)" fill="#333333"/>
<rect width="542" height="7" transform="translate(120 1334)" fill="#333333"/>
<rect width="14" height="7" transform="translate(162 1503)" fill="#333333"/>
<rect width="16" height="7" transform="translate(104 1565)" fill="#333333"/>
<rect width="84" height="7" transform="translate(6 1565)" fill="#333333"/>
<rect width="121" height="7" transform="translate(0 1516)" fill="#333333"/>
<rect width="14" height="7" transform="translate(642 1503)" fill="#333333"/>
<rect width="82" height="7" transform="translate(543 1503)" fill="#333333"/>
<rect width="82" height="7" transform="translate(443 1503)" fill="#333333"/>
<rect width="231" height="7" transform="translate(194 1503)" fill="#333333"/>
<rect width="455" height="7" transform="translate(157 1539)" fill="#333333"/>
<rect width="234" height="6" transform="matrix(0 1 1 0 120 1599)" fill="#333333"/>
<rect width="128" height="6" transform="matrix(0 1 1 0 0 1523)" fill="#333333"/>
<rect width="82" height="6" transform="matrix(0 1 1 0 157 1546)" fill="#333333"/>
<rect width="82" height="6" transform="matrix(0 1 1 0 606 1546)" fill="#333333"/>
<rect width="169" height="6" transform="matrix(0 1 1 0 156 1664)" fill="#333333"/>
<rect width="162" height="5" transform="matrix(0 1 1 0 306 1671)" fill="#333333"/>
<rect width="162" height="5" transform="matrix(0 1 1 0 455 1671)" fill="#333333"/>
<rect width="162" height="4" transform="matrix(0 1 1 0 555 1671)" fill="#333333"/>
<rect width="542" height="7" transform="matrix(1 0 0 -1 120 1840)" fill="#333333"/>
<rect width="14" height="7" transform="matrix(1 0 0 -1 162 1671)" fill="#333333"/>
<rect width="20" height="7" transform="matrix(1 0 0 -1 126 1671)" fill="#333333"/>
<rect width="20" height="7" transform="matrix(1 0 0 -1 126 1510)" fill="#333333"/>
<rect width="48" height="7" transform="matrix(1 0 0 -1 72 1606)" fill="#333333"/>
<rect width="55" height="7" transform="matrix(1 0 0 -1 6 1606)" fill="#333333"/>
<rect width="121" height="7" transform="matrix(1 0 0 -1 0 1658)" fill="#333333"/>
<rect width="14" height="7" transform="matrix(1 0 0 -1 642 1671)" fill="#333333"/>
<rect width="82" height="7" transform="matrix(1 0 0 -1 543 1671)" fill="#333333"/>
<rect width="82" height="7" transform="matrix(1 0 0 -1 443 1671)" fill="#333333"/>
<rect width="231" height="7" transform="matrix(1 0 0 -1 194 1671)" fill="#333333"/>
<rect width="455" height="7" transform="matrix(1 0 0 -1 157 1635)" fill="#333333"/>
<rect width="224" height="7" transform="translate(959 1033)" fill="#333333"/>
<rect width="236" height="7" transform="translate(953 2237)" fill="#333333"/>
<rect width="224" height="7" transform="translate(959 988)" fill="#333333"/>
<rect width="224" height="7" transform="translate(959)" fill="#333333"/>
<rect width="65" height="7" transform="translate(959 511)" fill="#333333"/>
<rect width="65" height="7" transform="translate(1118 511)" fill="#333333"/>
<rect width="65" height="7" transform="translate(959 561)" fill="#333333"/>
<rect width="65" height="7" transform="translate(1118 561)" fill="#333333"/>
<rect width="65" height="7" transform="translate(959 1559)" fill="#333333"/>
<rect width="106" height="6" transform="translate(1018 1634)" fill="#333333"/>
<rect width="106" height="6" transform="translate(1018 1475)" fill="#333333"/>
<rect width="106" height="6" transform="translate(1018 587)" fill="#333333"/>
<rect width="106" height="6" transform="translate(1018 428)" fill="#333333"/>
<rect width="65" height="7" transform="translate(1118 1559)" fill="#333333"/>
<rect width="65" height="7" transform="translate(959 1609)" fill="#333333"/>
<rect width="65" height="7" transform="translate(1118 1609)" fill="#333333"/>
<rect width="48" height="7" transform="matrix(0 -1 -1 0 1225 1437)" fill="#333333"/>
<rect width="78" height="6" transform="matrix(0 -1 -1 0 1124 1559)" fill="#333333"/>
<rect width="78" height="6" transform="matrix(0 -1 -1 0 1024 1559)" fill="#333333"/>
<rect width="78" height="6" transform="matrix(0 -1 -1 0 1124 512)" fill="#333333"/>
<rect width="78" height="6" transform="matrix(0 -1 -1 0 1024 512)" fill="#333333"/>
<rect width="81" height="7" transform="matrix(0 -1 -1 0 1225 1537)" fill="#333333"/>
<rect width="18" height="6" transform="matrix(0 -1 -1 0 1124 1634)" fill="#333333"/>
<rect width="18" height="6" transform="matrix(0 -1 -1 0 1024 1634)" fill="#333333"/>
<rect width="19" height="6" transform="matrix(0 -1 -1 0 1124 587)" fill="#333333"/>
<rect width="19" height="6" transform="matrix(0 -1 -1 0 1024 587)" fill="#333333"/>
<rect width="394" height="6" transform="matrix(0 -1 -1 0 1494 1559)" fill="#333333"/>
<rect width="12" height="7" transform="matrix(0 -1 -1 0 1541 1849)" fill="#333333"/>
<rect width="10" height="7" transform="matrix(0 -1 -1 0 1225 1566)" fill="#333333"/>
<rect width="19" height="7" transform="matrix(0 -1 -1 0 1225 1628)" fill="#333333"/>
<rect width="132" height="7" transform="matrix(0 -1 -1 0 1225 1778)" fill="#333333"/>
<rect width="131" height="7" transform="matrix(0 -1 -1 0 1225 1927)" fill="#333333"/>
<rect width="140" height="7" transform="matrix(0 -1 -1 0 1225 2085)" fill="#333333"/>
<rect width="150" height="7" transform="matrix(0 -1 -1 0 1225 2244)" fill="#333333"/>
<rect width="30" height="7" transform="matrix(0 -1 -1 0 1262 2094)" fill="#333333"/>
<rect width="105" height="7" transform="matrix(0 -1 -1 0 1322 2242)" fill="#333333"/>
<rect width="299" height="6" transform="matrix(0 -1 -1 0 1485 2235)" fill="#333333"/>
<rect width="269" height="7" transform="matrix(-1 0 0 1 1494 1559)" fill="#333333"/>
<rect width="162" height="7" transform="matrix(-1 0 0 1 1656 1165)" fill="#333333"/>
<rect width="115" height="7" transform="matrix(-1 0 0 1 1656 1298)" fill="#333333"/>
<rect width="169" height="7" transform="matrix(-1 0 0 1 1710 1350)" fill="#333333"/>
<rect width="163" height="7" transform="matrix(-1 0 0 1 1704 1499)" fill="#333333"/>
<rect width="136" height="7" transform="matrix(-1 0 0 1 1704 1650)" fill="#333333"/>
<rect width="139" height="7" transform="matrix(-1 0 0 1 1704 1699)" fill="#333333"/>
<rect width="216" height="7" transform="matrix(-1 0 0 1 1704 1849)" fill="#333333"/>
<rect width="31" height="7" transform="matrix(0 -1 1 0 916 1179)" fill="#333333"/>
<rect width="455" height="7" transform="matrix(0 -1 1 0 780 1316)" fill="#333333"/>
<rect width="129" height="7" transform="matrix(-1 0 0 1 1354 861)" fill="#333333"/>
<rect width="129" height="7" transform="matrix(-1 0 0 1 1354 1011)" fill="#333333"/>
<rect width="129" height="7" transform="matrix(-1 0 0 1 1354 1160)" fill="#333333"/>
<rect width="129" height="7" transform="matrix(-1 0 0 1 1354 1309)" fill="#333333"/>
<rect width="24" height="5" transform="matrix(0 -1 -1 0 1260 861)" fill="#333333"/>
<rect width="130" height="7" transform="matrix(0 -1 -1 0 1225 1129)" fill="#333333"/>
<rect width="150" height="7" transform="matrix(0 -1 -1 0 1225 980)" fill="#333333"/>
<rect width="172" height="7" transform="matrix(0 -1 -1 0 1225 1370)" fill="#333333"/>
<rect width="31" height="7" transform="matrix(0 -1 -1 0 1225 1179)" fill="#333333"/>
<rect width="455" height="7" transform="matrix(0 -1 -1 0 1361 1316)" fill="#333333"/>
<rect width="270" height="7" transform="matrix(-1 0 0 1 1495 1609)" fill="#333333"/>
<rect width="129" height="7" transform="matrix(-1 0 0 1 1354 1759)" fill="#333333"/>
<rect width="129" height="7" transform="matrix(-1 0 0 1 1354 1908)" fill="#333333"/>
<rect width="129" height="7" transform="matrix(-1 0 0 1 1354 2057)" fill="#333333"/>
<rect width="37" height="7" transform="matrix(-1 0 0 1 1262 2094)" fill="#333333"/>
<rect width="90" height="7" transform="matrix(-1 0 0 1 1315 2137)" fill="#333333"/>
<rect width="163" height="7" transform="matrix(-1 0 0 1 1485 2235)" fill="#333333"/>
<rect width="448" height="7" transform="matrix(0 -1 -1 0 1361 2064)" fill="#333333"/>
<rect width="19" height="7" transform="matrix(0 -1 1 0 915 1628)" fill="#333333"/>
<rect width="132" height="7" transform="matrix(0 -1 1 0 915 1778)" fill="#333333"/>
<rect width="131" height="7" transform="matrix(0 -1 1 0 915 1927)" fill="#333333"/>
<rect width="140" height="7" transform="matrix(0 -1 1 0 915 2085)" fill="#333333"/>
<rect width="150" height="7" transform="matrix(0 -1 1 0 915 2244)" fill="#333333"/>
<rect width="30" height="7" transform="matrix(0 -1 1 0 878 2094)" fill="#333333"/>
<rect width="105" height="7" transform="matrix(0 -1 1 0 818 2242)" fill="#333333"/>
<rect width="442" height="6" transform="matrix(0 -1 1 0 443 2385)" fill="#333333"/>
<rect width="442" height="6" transform="matrix(0 -1 1 0 1693 2385)" fill="#333333"/>
<rect width="299" height="6" transform="matrix(0 -1 1 0 656 2235)" fill="#333333"/>
<rect width="259" height="7" transform="translate(656 1609)" fill="#333333"/>
<rect width="129" height="7" transform="translate(786 1759)" fill="#333333"/>
<rect width="213" height="7" transform="translate(443 1936)" fill="#333333"/>
<rect width="175" height="7" transform="translate(443 2385)" fill="#333333"/>
<rect width="112" height="7" transform="matrix(0 -1 1 0 611 2385)" fill="#333333"/>
<rect width="251" height="7" transform="matrix(0 -1 1 0 680 2542)" fill="#333333"/>
<rect width="10" height="7" transform="translate(618 2284)" fill="#333333"/>
<rect width="108" height="7" transform="translate(758 2285)" fill="#333333"/>
<rect width="130" height="7" transform="translate(687 2535)" fill="#333333"/>
<rect width="130" height="7" transform="translate(1324 2535)" fill="#333333"/>
<rect width="108" height="7" transform="translate(877 2285)" fill="#333333"/>
<rect width="60" height="7" transform="translate(998 2285)" fill="#333333"/>
<rect width="107" height="7" transform="translate(639 2285)" fill="#333333"/>
<rect width="251" height="7" transform="matrix(0 -1 1 0 817 2542)" fill="#333333"/>
<rect width="302" height="7" transform="matrix(0 -1 1 0 915 2593)" fill="#333333"/>
<rect width="297" height="7" transform="translate(922 2586)" fill="#333333"/>
<rect x="-0.5" y="-0.5" width="250" height="6" transform="matrix(0 -1 -1 0 1460 2541)" fill="#333333"/>
<rect x="-0.5" y="-0.5" width="250" height="6" transform="matrix(0 -1 -1 0 1460 2541)" stroke="black"/>
<rect x="-0.5" y="-0.5" width="250" height="6" transform="matrix(0 -1 -1 0 1460 2541)" stroke="black" stroke-opacity="0.2"/>
<rect x="-0.5" y="0.5" width="9" height="6" transform="matrix(-1 0 0 1 1522 2284)" fill="#333333"/>
<rect x="-0.5" y="0.5" width="9" height="6" transform="matrix(-1 0 0 1 1522 2284)" stroke="black"/>
<rect x="-0.5" y="0.5" width="9" height="6" transform="matrix(-1 0 0 1 1522 2284)" stroke="black" stroke-opacity="0.2"/>
<rect x="-0.5" y="0.5" width="107" height="6" transform="matrix(-1 0 0 1 1382 2285)" fill="#333333"/>
<rect x="-0.5" y="0.5" width="107" height="6" transform="matrix(-1 0 0 1 1382 2285)" stroke="black"/>
<rect x="-0.5" y="0.5" width="107" height="6" transform="matrix(-1 0 0 1 1382 2285)" stroke="black" stroke-opacity="0.2"/>
<rect x="-0.5" y="0.5" width="107" height="6" transform="matrix(-1 0 0 1 1263 2285)" fill="#333333"/>
<rect x="-0.5" y="0.5" width="107" height="6" transform="matrix(-1 0 0 1 1263 2285)" stroke="black"/>
<rect x="-0.5" y="0.5" width="107" height="6" transform="matrix(-1 0 0 1 1263 2285)" stroke="black" stroke-opacity="0.2"/>
<rect x="-0.5" y="0.5" width="59" height="6" transform="matrix(-1 0 0 1 1142 2285)" fill="#333333"/>
<rect x="-0.5" y="0.5" width="59" height="6" transform="matrix(-1 0 0 1 1142 2285)" stroke="black"/>
<rect x="-0.5" y="0.5" width="59" height="6" transform="matrix(-1 0 0 1 1142 2285)" stroke="black" stroke-opacity="0.2"/>
<rect x="-0.5" y="0.5" width="106" height="6" transform="matrix(-1 0 0 1 1501 2285)" fill="#333333"/>
<rect x="-0.5" y="0.5" width="106" height="6" transform="matrix(-1 0 0 1 1501 2285)" stroke="black"/>
<rect x="-0.5" y="0.5" width="106" height="6" transform="matrix(-1 0 0 1 1501 2285)" stroke="black" stroke-opacity="0.2"/>
<rect x="-0.5" y="-0.5" width="250" height="6" transform="matrix(0 -1 -1 0 1323 2541)" fill="#333333"/>
<rect x="-0.5" y="-0.5" width="250" height="6" transform="matrix(0 -1 -1 0 1323 2541)" stroke="black"/>
<rect x="-0.5" y="-0.5" width="250" height="6" transform="matrix(0 -1 -1 0 1323 2541)" stroke="black" stroke-opacity="0.2"/>
<rect x="-0.5" y="-0.5" width="301" height="6" transform="matrix(0 -1 -1 0 1225 2592)" fill="#333333"/>
<rect x="-0.5" y="-0.5" width="301" height="6" transform="matrix(0 -1 -1 0 1225 2592)" stroke="black"/>
<rect x="-0.5" y="-0.5" width="301" height="6" transform="matrix(0 -1 -1 0 1225 2592)" stroke="black" stroke-opacity="0.2"/>
<rect width="62" height="7" transform="matrix(0 -1 1 0 611 2005)" fill="#333333"/>
<rect width="126" height="7" transform="matrix(0 -1 1 0 611 2150)" fill="#333333"/>
<rect width="83" height="7" transform="matrix(0 -1 1 0 611 2251)" fill="#333333"/>
<rect width="112" height="7" transform="matrix(0 -1 1 0 1523 2385)" fill="#333333"/>
<rect width="62" height="7" transform="matrix(0 -1 1 0 1523 2005)" fill="#333333"/>
<rect width="126" height="7" transform="matrix(0 -1 1 0 1523 2150)" fill="#333333"/>
<rect width="83" height="7" transform="matrix(0 -1 1 0 1523 2251)" fill="#333333"/>
<rect width="214" height="7" transform="matrix(-1 0 0 1 1699 1936)" fill="#333333"/>
<rect width="175" height="7" transform="matrix(-1 0 0 1 1699 2385)" fill="#333333"/>
<rect width="129" height="7" transform="translate(786 2057)" fill="#333333"/>
<rect width="37" height="7" transform="translate(878 2094)" fill="#333333"/>
<rect width="90" height="7" transform="translate(825 2137)" fill="#333333"/>
<rect width="162" height="7" transform="translate(656 2235)" fill="#333333"/>
<rect width="448" height="7" transform="matrix(0 -1 1 0 779 2064)" fill="#333333"/>
<rect width="214" height="7" transform="translate(449 1111)" fill="#333333"/>
<rect width="162" height="3" transform="translate(449 965)" fill="#333333"/>
<rect width="162" height="3" transform="translate(449 861)" fill="#333333"/>
<rect width="162" height="3" transform="translate(449 761)" fill="#333333"/>
<rect width="72" height="7" transform="translate(844 512)" fill="#333333"/>
<rect width="73" height="7" transform="translate(753 512)" fill="#333333"/>
<rect width="499" height="7" transform="matrix(0 -1 1 0 747 519)" fill="#333333"/>
<rect width="705" height="7" transform="matrix(0 -1 1 0 442 1118)" fill="#333333"/>
<rect width="372" height="7" transform="matrix(-1 0 0 1 1591 561)" fill="#333333"/>
<rect width="76" height="7" transform="matrix(0 -1 -1 0 1598 612)" fill="#333333"/>
<rect width="77" height="7" transform="matrix(0 -1 -1 0 551 612)" fill="#333333"/>
<rect width="203" height="7" transform="matrix(-1 0 0 1 1598 512)" fill="#333333"/>
<rect width="205" height="7" transform="matrix(-1 0 0 1 1693 612)" fill="#333333"/>
<rect width="181" height="7" transform="matrix(0 -1 -1 0 1531 830)" fill="#333333"/>
<rect width="181" height="6" transform="matrix(0 -1 -1 0 1494 800)" fill="#333333"/>
<rect width="288" height="6" transform="matrix(0 -1 -1 0 1494 1118)" fill="#333333"/>
<rect width="11" height="7" transform="matrix(0 -1 -1 0 1531 630)" fill="#333333"/>
<rect width="262" height="7" transform="matrix(0 -1 -1 0 1531 1111)" fill="#333333"/>
<rect width="199" height="7" transform="matrix(-1 0 0 1 1693 1111)" fill="#333333"/>
<rect width="30" height="7" transform="matrix(-1 0 0 1 1524 1077)" fill="#333333"/>
<rect width="30" height="7" transform="matrix(-1 0 0 1 1524 861)" fill="#333333"/>
<rect width="30" height="7" transform="matrix(-1 0 0 1 1524 762)" fill="#333333"/>
<rect width="19" height="6" transform="matrix(-1 0 0 1 1244 830)" fill="#333333"/>
<rect width="191" height="7" transform="matrix(0 -1 -1 0 1541 1569)" fill="#333333"/>
<rect width="229" height="7" transform="matrix(0 -1 -1 0 1541 1816)" fill="#333333"/>
<rect width="233" height="7" transform="matrix(0 -1 -1 0 1495 1849)" fill="#333333"/>
<rect width="61" height="7" transform="matrix(0 -1 -1 0 1541 1359)" fill="#333333"/>
<rect width="126" height="7" transform="matrix(0 -1 -1 0 1656 1298)" fill="#333333"/>
<rect width="705" height="7" transform="matrix(0 -1 -1 0 1700 1118)" fill="#333333"/>
<rect width="499" height="6" transform="matrix(0 -1 -1 0 1710 1856)" fill="#333333"/>
<rect width="518" height="6" transform="matrix(0 -1 1 0 953 518)" fill="#333333"/>
<rect width="533" height="6" transform="matrix(0 -1 1 0 953 1566)" fill="#333333"/>
<rect width="533" height="6" transform="matrix(0 -1 1 0 1183 1566)" fill="#333333"/>
<rect width="628" height="6" transform="matrix(0 -1 1 0 953 2237)" fill="#333333"/>
<rect width="628" height="6" transform="matrix(0 -1 1 0 1183 2237)" fill="#333333"/>
<rect width="518" height="6" transform="matrix(0 -1 1 0 1183 518)" fill="#333333"/>
<rect width="434" height="6" transform="matrix(0 -1 1 0 953 995)" fill="#333333"/>
<rect width="434" height="6" transform="matrix(0 -1 1 0 1183 995)" fill="#333333"/>
<rect width="12" height="7" transform="matrix(0 -1 1 0 916 32)" fill="#333333"/>
<rect width="13" height="6" transform="matrix(0 -1 1 0 1219 33)" fill="#333333"/>
<rect width="31" height="6" transform="matrix(0 -1 1 0 1219 82)" fill="#333333"/>
<rect width="81" height="6" transform="matrix(0 -1 1 0 1219 182)" fill="#333333"/>
<rect width="318" height="6" transform="matrix(0 -1 1 0 1219 519)" fill="#333333"/>
<rect width="186" height="7" transform="matrix(0 -1 1 0 916 233)" fill="#333333"/>
<rect width="271" height="7" transform="matrix(0 -1 1 0 916 519)" fill="#333333"/>
<rect width="499" height="7" transform="matrix(0 -1 1 0 1388 519)" fill="#333333"/>
</svg>
