<svg width="750" height="454" viewBox="0 0 750 454" fill="none" xmlns="http://www.w3.org/2000/svg">
<rect x="25" y="25" width="700" height="403.846" rx="201.923" fill="white" stroke="black" stroke-width="50"/>
<g clip-path="url(#clip0_2_43)">
<path d="M124.745 217.782L138.559 183.425L150.768 175.86L138.444 229.347L138.59 229.381C138.27 230.727 138.179 232.151 138.381 233.604L140.925 251.883L162.459 240.278L161.683 234.701L164.298 235.304L166.622 238.034C171.973 235.151 187.57 226.745 192.92 223.861L192.588 223.823C183.885 222.833 178.002 216.125 176.837 211.412L167.171 172.352L186.009 209.144C187.512 212.078 190.382 214.065 193.657 214.437L232.727 218.883C237.839 219.464 242.515 216.011 243.496 211.007C244.604 205.35 240.658 199.973 234.953 199.325L201.126 195.476L184.066 162.158L205.39 186.063L209.449 168.445C211.269 160.547 206.342 152.669 198.444 150.851C176.633 145.906 171.776 144.376 169.114 144.15C166.671 143.943 164.053 144.472 161.804 145.866L125.447 168.394C123.664 169.499 122.282 171.143 121.5 173.089L106.483 210.44C104.455 215.483 106.9 221.216 111.943 223.243C116.992 225.272 122.72 222.819 124.745 217.782Z" fill="black"/>
<path d="M145.663 295.261L140.667 342.963C139.96 349.716 145.248 355.622 152.083 355.622C157.877 355.621 162.853 351.242 163.471 345.352L169.172 290.929C169.358 289.147 169.163 288.431 168.408 283.004L145.663 295.261Z" fill="black"/>
<path d="M196.001 141.669C207.998 141.669 217.724 131.943 217.724 119.946C217.724 107.949 207.998 98.2229 196.001 98.2229C184.004 98.2229 174.278 107.949 174.278 119.946C174.278 131.943 184.004 141.669 196.001 141.669Z" fill="black"/>
<path d="M374.956 150.416C374.956 143.859 367.923 139.666 362.151 142.806L252.043 202.702C253 205.418 253.34 208.338 253.005 211.284C251.807 221.824 242.278 229.478 231.658 228.27L209.643 225.765L115.517 276.967C112.729 278.484 110.993 281.404 110.993 284.577C110.993 292.15 110.993 340.175 110.993 346.958C110.993 351.744 114.871 355.622 119.657 355.622C124.442 355.622 128.321 351.744 128.321 346.958C128.321 340.544 128.321 296.245 128.321 289.728L357.627 164.992C357.627 169.306 357.627 256.616 357.627 260.897H327.941C326.355 260.897 325.068 262.182 325.068 263.769V284.578H278.01C276.424 284.578 275.138 285.864 275.138 287.451V308.26H228.079C226.493 308.26 225.207 309.545 225.207 311.132V331.941H200.444C202.9 330.328 204.742 327.78 205.38 324.674L216.924 268.557C217.624 265.156 216.87 261.689 214.066 258.395L193.304 269.584L182.922 320.055C181.948 324.791 184.053 329.438 187.861 331.941H178.148C176.562 331.941 175.276 333.226 175.276 334.813V352.751C175.276 354.337 176.561 355.623 178.148 355.623H372.128C373.714 355.623 375 354.338 375 352.751C375 252.963 374.956 292.267 374.956 150.416Z" fill="black"/>
</g>
<path d="M616.707 211.593C623.27 205.552 631.924 202.298 640.841 202.517C649.758 202.736 658.241 206.411 664.5 212.767C670.758 219.123 674.302 227.662 674.383 236.581C674.465 245.501 671.077 254.103 664.935 260.572L563.014 360.945C556.582 367.271 547.922 370.816 538.9 370.816C529.878 370.816 521.218 367.271 514.786 360.945L414.835 262.566C408.596 256.12 405.121 247.492 405.154 238.522C405.187 229.551 408.723 220.948 415.01 214.549C421.296 208.149 429.834 204.459 438.803 204.266C447.772 204.074 456.461 207.393 463.016 213.517L505.239 255.012L505.919 116.216C506.154 70.9911 574.93 71.6479 574.719 116.803L574.015 253.535L616.707 211.593Z" fill="black"/>
<defs>
<clipPath id="clip0_2_43">
<rect width="269.231" height="269.231" fill="white" transform="translate(105.769 92.3077)"/>
</clipPath>
</defs>
</svg>
